<svg width="64" height="64" viewBox="0 0 64 64" fill="none" xmlns="http://www.w3.org/2000/svg">
  <circle cx="32" cy="32" r="32" fill="#FFE4E6"/>
  <path d="M44 24c0-6.627-5.373-12-12-12s-12 5.373-12 12c0 2.583.817 4.976 2.206 6.943C18.794 33.024 16 37.373 16 42c0 8.837 7.163 16 16 16s16-7.163 16-16c0-4.627-2.794-8.976-6.206-11.057C43.183 28.976 44 26.583 44 24z" fill="#FDA4AF"/>
  <circle cx="28" cy="22" r="2" fill="#1C2033"/>
  <path d="M38 42c0 3.314-2.686 6-6 6s-6-2.686-6-6" stroke="#1C2033" stroke-width="2" stroke-linecap="round"/>
</svg> 